<svg width="23" height="23" viewBox="0 0 23 23" fill="none" xmlns="http://www.w3.org/2000/svg">
<g clip-path="url(#clip0_1469_3813)">
<path d="M17.6094 0H5.39062C2.41347 0 0 2.41347 0 5.39062V17.6094C0 20.5865 2.41347 23 5.39062 23H17.6094C20.5865 23 23 20.5865 23 17.6094V5.39062C23 2.41347 20.5865 0 17.6094 0Z" fill="#330000"/>
<path d="M11.1176 13.6861H7.55261L6.82425 15.9382C6.80511 16.0244 6.72847 16.0819 6.64222 16.0723H4.8405C4.73511 16.0723 4.70636 16.0148 4.73511 15.8998L7.82097 7.01605C7.84972 6.92028 7.87847 6.8148 7.91675 6.6998C7.95511 6.49855 7.97425 6.28778 7.97425 6.07691C7.96472 6.02903 8.003 5.98105 8.05097 5.97153H10.533C10.6097 5.97153 10.648 6.00028 10.6576 6.04816L14.1555 15.919C14.1842 16.0244 14.1555 16.0723 14.0597 16.0723H12.0567C11.9897 16.0819 11.9226 16.034 11.9035 15.9669L11.1176 13.6861ZM8.10847 11.7407H10.5426C10.4851 11.5394 10.4085 11.2998 10.3222 11.0507C10.236 10.7919 10.1497 10.514 10.0635 10.2265C9.96761 9.92941 9.88136 9.64191 9.7855 9.3448C9.68972 9.04778 9.60347 8.7698 9.52675 8.49191C9.45011 8.22364 9.383 7.97441 9.31597 7.74441H9.29675C9.2105 8.15653 9.10511 8.56864 8.97097 8.98066C8.82722 9.44066 8.68347 9.9198 8.53011 10.399C8.40634 10.8513 8.2657 11.2989 8.10847 11.7407ZM16.2926 7.64855C15.9764 7.65816 15.6697 7.53355 15.4397 7.31316C15.2193 7.07355 15.1043 6.7573 15.1139 6.43153C15.1043 6.10566 15.2289 5.79903 15.4589 5.57855C15.6889 5.35816 15.9956 5.24316 16.3118 5.24316C16.6856 5.24316 16.9731 5.35816 17.1839 5.57855C17.3962 5.8109 17.5097 6.11688 17.5001 6.43153C17.5097 6.7573 17.3947 7.07355 17.1647 7.31316C16.9443 7.54316 16.6185 7.66778 16.2926 7.64855ZM15.2193 15.9669V8.58778C15.2193 8.49191 15.2576 8.45355 15.3439 8.45355H17.2414C17.3276 8.45355 17.366 8.50153 17.366 8.58778V15.9669C17.366 16.0723 17.3276 16.1203 17.2414 16.1203H15.3631C15.2672 16.1203 15.2193 16.0628 15.2193 15.9669Z" fill="#FF9A00"/>
</g>
<defs>
<clipPath id="clip0_1469_3813">
<rect width="23" height="23" fill="white"/>
</clipPath>
</defs>
</svg>
