<svg width="23" height="23" viewBox="0 0 23 23" fill="none" xmlns="http://www.w3.org/2000/svg">
<g clip-path="url(#clip0_1469_3850)">
<path d="M6.9 6.9L7.521 6.45073C7.42601 6.31952 7.2919 6.22178 7.13791 6.17151C6.98392 6.12124 6.81796 6.12104 6.66385 6.17094C6.50974 6.22083 6.3754 6.31826 6.28009 6.44923C6.18478 6.58021 6.1334 6.73801 6.13333 6.9H6.9ZM11.5 21.4667C8.85668 21.4667 6.32162 20.4166 4.4525 18.5475C2.58339 16.6784 1.53333 14.1433 1.53333 11.5H0C0 14.55 1.2116 17.4751 3.36827 19.6317C5.52494 21.7884 8.45001 23 11.5 23V21.4667ZM21.4667 11.5C21.4667 12.8088 21.2089 14.1049 20.708 15.3141C20.2071 16.5233 19.473 17.622 18.5475 18.5475C17.622 19.473 16.5233 20.2071 15.3141 20.708C14.1049 21.2089 12.8088 21.4667 11.5 21.4667V23C14.55 23 17.4751 21.7884 19.6317 19.6317C21.7884 17.4751 23 14.55 23 11.5H21.4667ZM11.5 1.53333C12.8088 1.53333 14.1049 1.79113 15.3141 2.292C16.5233 2.79287 17.622 3.52701 18.5475 4.4525C19.473 5.37799 20.2071 6.47671 20.708 7.68592C21.2089 8.89513 21.4667 10.1912 21.4667 11.5H23C23 8.45001 21.7884 5.52494 19.6317 3.36827C17.4751 1.2116 14.55 0 11.5 0V1.53333ZM11.5 0C8.45001 0 5.52494 1.2116 3.36827 3.36827C1.2116 5.52494 0 8.45001 0 11.5H1.53333C1.53333 8.85668 2.58339 6.32162 4.4525 4.4525C6.32162 2.58339 8.85668 1.53333 11.5 1.53333V0ZM7.66667 18.4V6.9H6.13333V18.4H7.66667ZM6.279 7.34927L16.2457 21.1493L17.4877 20.2507L7.521 6.45073L6.279 7.34927ZM15.3333 6.13333V15.3333H16.8667V6.13333H15.3333Z" fill="#F8F8F8"/>
</g>
<defs>
<clipPath id="clip0_1469_3850">
<rect width="23" height="23" fill="white"/>
</clipPath>
</defs>
</svg>
