<svg width="23" height="23" viewBox="0 0 23 23" fill="none" xmlns="http://www.w3.org/2000/svg">
<g clip-path="url(#clip0_1469_3884)">
<path d="M22.0989 17.6619C20.8714 18.4064 14.513 21.4485 13.1593 22.2697C11.8056 23.091 11.0537 23.0831 9.98425 22.4882C8.91493 21.8934 2.14843 18.7129 0.929523 18.0349C0.320383 17.6962 0 17.4101 0 17.14V14.4348C0 14.4348 8.80918 12.2033 10.2313 11.6095C11.6534 11.0158 12.1468 10.9944 13.357 11.5102C14.5674 12.0263 21.8039 13.5455 23 14.0553L22.9995 16.7222C22.9996 16.9897 22.7236 17.283 22.0989 17.6619Z" fill="#912626"/>
<path d="M22.0984 14.973C20.871 15.7171 14.5128 18.7594 13.1591 19.5805C11.8055 20.4019 11.0535 20.3939 9.98423 19.799C8.91482 19.2046 2.14859 16.0236 0.929773 15.346C-0.289047 14.668 -0.314563 14.2014 0.882695 13.6559C2.07995 13.1102 8.80907 10.0381 10.2314 9.4444C11.6534 8.8509 12.1468 8.82926 13.357 9.3453C14.5672 9.86112 20.8876 12.7885 22.0835 13.2982C23.2798 13.8084 23.3258 14.2286 22.0984 14.973Z" fill="#C6302B"/>
<path d="M22.0989 13.2849C20.8714 14.0294 14.513 17.0715 13.1593 17.893C11.8056 18.714 11.0537 18.7061 9.98425 18.1112C8.91484 17.5167 2.14843 14.3359 0.929523 13.6579C0.320383 13.3192 0 13.0335 0 12.7633V10.0578C0 10.0578 8.80918 7.82635 10.2313 7.23264C11.6534 6.63892 12.1468 6.61739 13.357 7.13332C14.5674 7.64925 21.804 9.16819 23 9.67806L22.9995 12.3453C22.9996 12.6126 22.7236 12.906 22.0989 13.2849Z" fill="#912626"/>
<path d="M22.0984 10.596C20.871 11.3403 14.5128 14.3824 13.1591 15.2038C11.8055 16.0249 11.0535 16.0169 9.98423 15.422C8.91482 14.8276 2.14859 11.6467 0.929773 10.969C-0.289047 10.2912 -0.314563 9.82453 0.882695 9.2788C2.07995 8.73339 8.80916 5.66111 10.2314 5.0675C11.6534 4.47389 12.1468 4.45236 13.357 4.96829C14.5672 5.48412 20.8876 8.41129 22.0835 8.92115C23.2798 9.43133 23.3258 9.85161 22.0984 10.596Z" fill="#C6302B"/>
<path d="M22.0989 8.7456C20.8714 9.48996 14.513 12.5322 13.1593 13.3538C11.8056 14.1749 11.0537 14.1668 9.98425 13.5719C8.91484 12.9774 2.14843 9.79649 0.929523 9.11883C0.320383 8.77979 0 8.49406 0 8.22413V5.51849C0 5.51849 8.80918 3.28718 10.2313 2.69357C11.6534 2.09975 12.1468 2.07842 13.357 2.59425C14.5674 3.11018 21.804 4.62912 23 5.13899L22.9995 7.80616C22.9996 8.07327 22.7236 8.36662 22.0989 8.7456Z" fill="#912626"/>
<path d="M22.0984 6.05678C20.871 6.80115 14.5128 9.84342 13.1591 10.6645C11.8055 11.4856 11.0535 11.4776 9.98418 10.883C8.91486 10.2882 2.14855 7.10747 0.929818 6.4297C-0.289092 5.75203 -0.314518 5.28524 0.88265 4.73962C2.07991 4.1941 8.80911 1.12224 10.2313 0.528421C11.6534 -0.0652924 12.1467 -0.0866197 13.3569 0.429312C14.5672 0.945244 20.8875 3.87241 22.0834 4.38228C23.2798 4.89204 23.3257 5.31242 22.0984 6.05678Z" fill="#C6302B"/>
<path d="M14.3113 3.4248L12.3339 3.66368L11.8912 4.90317L11.1762 3.52004L8.89286 3.28125L10.5967 2.56627L10.0854 1.46875L11.6806 2.19471L13.1844 1.6218L12.778 2.75665L14.3113 3.4248ZM11.7732 9.43804L8.08265 7.6569L13.3709 6.71233L11.7732 9.43804ZM6.65656 4.11375C8.2176 4.11375 9.48305 4.68457 9.48305 5.38858C9.48305 6.0928 8.2176 6.66351 6.65656 6.66351C5.09553 6.66351 3.83008 6.09269 3.83008 5.38858C3.83008 4.68457 5.09553 4.11375 6.65656 4.11375Z" fill="white"/>
<path d="M16.6484 3.76367L19.7782 5.20284L16.6511 6.64066L16.6484 3.76367Z" fill="#621B1C"/>
<path d="M13.1855 5.35747L16.6481 3.76367L16.6508 6.64066L16.3113 6.79518L13.1855 5.35747Z" fill="#9A2928"/>
</g>
<defs>
<clipPath id="clip0_1469_3884">
<rect width="23" height="23" fill="white"/>
</clipPath>
</defs>
</svg>
