<svg width="23" height="23" viewBox="0 0 23 23" fill="none" xmlns="http://www.w3.org/2000/svg">
<path d="M19.289 0.361596L18.0466 0.439042L18.1435 3.02241C18.1485 3.16526 17.9837 3.24864 17.8714 3.16005L17.0395 2.50419L16.0539 3.25205C16.0285 3.27132 15.9982 3.28297 15.9664 3.28563C15.9347 3.2883 15.9028 3.28186 15.8746 3.26709C15.8463 3.25231 15.8229 3.2298 15.807 3.20219C15.7911 3.17458 15.7834 3.14301 15.7847 3.11117L15.8956 0.573448L3.57119 1.34413C3.27802 1.36239 3.00361 1.49454 2.80654 1.71236C2.60947 1.93018 2.50535 2.21641 2.51643 2.50994L3.21002 20.9886C3.22061 21.271 3.33699 21.539 3.53605 21.7395C3.73512 21.94 4.0023 22.0583 4.28455 22.0709L19.3086 22.7454C19.4605 22.7522 19.6121 22.7281 19.7544 22.6747C19.8968 22.6212 20.0268 22.5396 20.1368 22.4346C20.2467 22.3296 20.3343 22.2034 20.3941 22.0636C20.4539 21.9238 20.4847 21.7734 20.4846 21.6213V1.485C20.4847 1.33125 20.4533 1.17911 20.3922 1.038C20.3312 0.896879 20.2419 0.769778 20.1298 0.664549C20.0178 0.559262 19.8854 0.478055 19.7408 0.425948C19.5962 0.373841 19.4424 0.351939 19.289 0.361596ZM11.8392 4.16864C14.7695 4.16864 16.3698 5.73605 16.3698 8.71814C15.9738 9.02595 13.024 9.23564 13.024 8.79775C13.0862 7.12665 12.3381 7.05352 11.9225 7.05352C11.5276 7.05352 10.8626 7.17247 10.8626 8.06768C10.8626 10.2757 16.5568 10.1565 16.5568 14.6126C16.5568 17.1193 14.5201 18.5037 11.9225 18.5037C9.24159 18.5037 6.899 17.4192 7.1635 13.6588C7.26736 13.2173 10.6755 13.3223 10.6755 13.6588C10.6342 15.2104 10.9873 15.6668 11.8807 15.6668C12.5665 15.6668 12.8785 15.289 12.8785 14.6523C12.8785 12.3845 7.26736 12.3051 7.26736 8.14746C7.26736 5.76031 8.90917 4.16864 11.8392 4.16864Z" fill="#FF4785"/>
</svg>
