<svg width="23" height="23" viewBox="0 0 23 23" fill="none" xmlns="http://www.w3.org/2000/svg">
<g clip-path="url(#clip0_1469_2302)">
<path d="M0 7.97336C0 4.21466 0 2.33531 1.1677 1.1677C2.33531 0 4.21457 0 7.97336 0H15.0267C18.7853 0 20.6646 0 21.8324 1.1677C23 2.33531 23 4.21457 23 7.97336V15.0267C23 18.7853 23 20.6646 21.8323 21.8324C20.6646 23 18.7854 23 15.0266 23H7.97345C4.21475 23 2.3354 23 1.16779 21.8323C0 20.6646 0 18.7854 0 15.0266V7.97336Z" fill="#4945FF"/>
<path d="M15.8703 6.97656H8.12695V10.9249H12.0753V14.8732H16.0236V7.12993C16.0236 7.0452 15.9549 6.97656 15.8703 6.97656Z" fill="white"/>
<path d="M11.9219 10.9248H12.0752V11.0782H11.9219V10.9248Z" fill="white"/>
<path d="M8.12716 10.9249H11.9222C12.0069 10.9249 12.0755 10.9936 12.0755 11.0782V14.8732H8.28052C8.26039 14.8732 8.24045 14.8693 8.22184 14.8616C8.20323 14.8539 8.18633 14.8426 8.17208 14.8283C8.15784 14.8141 8.14654 14.7972 8.13884 14.7786C8.13113 14.76 8.12716 14.7401 8.12716 14.7199V10.9249ZM12.0755 14.8732H16.0238L12.2063 18.6907C12.1581 18.739 12.0755 18.7048 12.0755 18.6366V14.8732ZM8.12716 10.9249H4.36388C4.29559 10.9249 4.26145 10.8423 4.3097 10.794L8.12716 6.97656V10.9249Z" fill="#9593FF"/>
</g>
<defs>
<clipPath id="clip0_1469_2302">
<rect width="23" height="23" fill="white"/>
</clipPath>
</defs>
</svg>
