<svg width="23" height="23" viewBox="0 0 23 23" fill="none" xmlns="http://www.w3.org/2000/svg">
<g clip-path="url(#clip0_1469_3881)">
<path d="M19.1816 0H3.81836C1.70954 0 0 1.75057 0 3.91V19.0532C0 21.2126 1.70954 22.9632 3.81836 22.9632H19.1816C21.2905 22.9632 23 21.2126 23 19.0532V3.91C23 1.75057 21.2905 0 19.1816 0Z" fill="#470137"/>
<path d="M12.0901 6.03927L9.22022 10.8898L12.2906 16.0404C12.3104 16.0765 12.3159 16.1188 12.3061 16.1589C12.3013 16.176 12.2911 16.1802 12.2754 16.1809L12.2579 16.1806L12.2367 16.1801C12.2252 16.1801 12.2124 16.1806 12.1981 16.183H9.98434L9.94085 16.1823C9.82154 16.1791 9.73556 16.1616 9.68318 16.072C9.47834 15.6633 9.2726 15.2552 9.06595 14.8475C8.8811 14.4839 8.69122 14.123 8.49634 13.765L8.41027 13.6073C8.1772 13.1831 7.94832 12.7565 7.72369 12.3276H7.70823C7.50079 12.752 7.28733 13.1734 7.06792 13.5915C6.84663 14.0128 6.62804 14.4316 6.41215 14.8475C6.19613 15.2638 5.97497 15.6773 5.74874 16.0878C5.71236 16.1715 5.65189 16.189 5.56771 16.1918L5.53267 16.1924H3.41891L3.40975 16.1927L3.37956 16.1954C3.36276 16.1964 3.3527 16.1928 3.34947 16.1668C3.34367 16.1283 3.35192 16.0889 3.37264 16.0562L6.35043 11.0478L3.44973 6.02363C3.41891 5.98168 3.41379 5.94746 3.43428 5.92096C3.44566 5.90746 3.45996 5.89686 3.47604 5.89C3.49211 5.88313 3.50953 5.88019 3.52691 5.8814H5.70238C5.74982 5.87874 5.79725 5.88684 5.84128 5.90514C5.87812 5.92657 5.90983 5.95629 5.93382 5.99208C6.11899 6.41344 6.32473 6.8348 6.55105 7.25597C6.77561 7.67449 7.00448 8.09057 7.23763 8.50414C7.46721 8.9113 7.68082 9.32768 7.87795 9.7523H7.8934C8.09543 9.32778 8.30374 8.90644 8.51827 8.4884C8.72895 8.07762 8.94502 7.66408 9.16622 7.24806C9.38461 6.83737 9.59806 6.42396 9.80654 6.0079C9.8184 5.96889 9.8396 5.93356 9.86826 5.90514C9.90637 5.88538 9.94919 5.87715 9.9917 5.8814H12.0129C12.0315 5.87666 12.0511 5.87822 12.0687 5.88586C12.0864 5.89349 12.1011 5.90679 12.1107 5.92374C12.1204 5.94069 12.1243 5.96039 12.1221 5.97986C12.1199 5.99934 12.1115 6.01754 12.0983 6.03173L12.0901 6.03927ZM16.6245 16.3868L16.5181 16.388C15.808 16.3991 15.1043 16.248 14.4583 15.9456C13.8565 15.6604 13.3534 15.1949 13.0157 14.6105C12.6751 14.0313 12.5002 13.3095 12.4914 12.4453L12.4911 12.3749C12.4853 11.6498 12.6663 10.9359 13.0158 10.3052C13.3655 9.68098 13.8754 9.16664 14.4903 8.81795L14.5432 8.78851C15.2116 8.40928 16.0191 8.21967 16.9656 8.21967L17.0069 8.22013L17.0541 8.2217L17.1071 8.22409L17.1661 8.22758L17.2651 8.23476L17.3772 8.24396L17.4592 8.25132V5.13878C17.4592 5.06518 17.4902 5.02819 17.5518 5.02819H19.4959C19.5085 5.02635 19.5213 5.02752 19.5334 5.03163C19.5454 5.03574 19.5564 5.04267 19.5653 5.05186C19.5743 5.06106 19.5811 5.07227 19.5851 5.08461C19.5891 5.09695 19.5903 5.11008 19.5885 5.12295V14.4605C19.5885 14.6173 19.5944 14.7862 19.6062 14.9669L19.635 15.3767L19.6503 15.6138C19.6522 15.6466 19.6443 15.6793 19.6278 15.7075C19.6113 15.7357 19.5868 15.7581 19.5576 15.7719C19.0561 15.986 18.5337 16.1449 17.9993 16.2458C17.5456 16.3315 17.0858 16.3787 16.6245 16.3868ZM17.4592 14.4288V10.1156C17.3759 10.0925 17.2907 10.0766 17.2047 10.0682C17.0996 10.0574 16.994 10.0521 16.8884 10.0524C16.514 10.0486 16.144 10.1352 15.8084 10.3052C15.4815 10.4716 15.2024 10.722 14.9983 11.032C14.7947 11.3371 14.6893 11.7355 14.6824 12.2271L14.682 12.2802C14.6745 12.6246 14.7294 12.9674 14.844 13.2913C14.9373 13.5523 15.0847 13.7895 15.2761 13.9865C15.4593 14.1678 15.6812 14.303 15.9241 14.3815C16.1807 14.4666 16.4489 14.5093 16.7187 14.508C16.8626 14.508 16.9963 14.5026 17.1198 14.492C17.2183 14.4845 17.316 14.4678 17.4116 14.4424L17.4592 14.4288Z" fill="#FF61F6"/>
</g>
<defs>
<clipPath id="clip0_1469_3881">
<rect width="23" height="23" fill="white"/>
</clipPath>
</defs>
</svg>
