<svg width="23" height="23" viewBox="0 0 23 23" fill="none" xmlns="http://www.w3.org/2000/svg">
<g clip-path="url(#clip0_1469_3818)">
<path d="M4.07298 0.287109H18.927C21.1792 0.287109 23 2.10788 23 4.36009V18.6391C23 20.8913 21.1792 22.7121 18.927 22.7121H4.07298C1.82077 22.7121 0 20.8913 0 18.6391V4.36009C0 2.10788 1.82077 0.287109 4.07298 0.287109Z" fill="#001E36"/>
<path d="M8.24251 5.98926C7.95501 5.98926 7.66751 5.98926 7.37048 5.99896C7.07328 6.00848 6.79531 6.00848 6.53656 6.01819C6.2778 6.02771 6.03828 6.02771 5.80828 6.03723C5.5878 6.04676 5.43453 6.04676 5.27155 6.04676C5.20453 6.04676 5.17578 6.08503 5.17578 6.15223V16.0135C5.17578 16.0997 5.21405 16.1382 5.29078 16.1382H7.15001C7.21703 16.1285 7.26501 16.071 7.25531 16.004V12.9277C7.43733 12.9277 7.57155 12.9277 7.66751 12.9372C7.76328 12.9468 7.91655 12.9468 8.14655 12.9468C8.93251 12.9468 9.65126 12.8605 10.3028 12.621C10.9258 12.391 11.4625 11.9885 11.8458 11.4518C12.2291 10.9152 12.4208 10.2347 12.4208 9.41051C12.4208 8.97926 12.3442 8.56723 12.2005 8.16473C12.0483 7.75462 11.8096 7.38203 11.5008 7.07223C11.1363 6.71818 10.6977 6.4497 10.2166 6.28628C9.67983 6.08503 9.02828 5.98926 8.24251 5.98926ZM8.45634 7.87688C8.79774 7.88334 9.13016 7.943 9.4403 8.06878C9.71828 8.17426 9.94828 8.36598 10.1113 8.61503C10.2643 8.8727 10.3408 9.16863 10.3317 9.46819C10.3317 9.88973 10.2358 10.2157 10.0345 10.4552C9.82358 10.6947 9.5553 10.8769 9.24876 10.9632C8.89405 11.0782 8.5203 11.1355 8.14655 11.1355H7.63858C7.52358 11.1355 7.39923 11.126 7.26501 11.1165V7.89646C7.33203 7.88676 7.46626 7.87723 7.65798 7.88694C7.84001 7.87723 8.06031 7.87723 8.30953 7.87723C8.35859 7.87598 8.40764 7.8758 8.45634 7.87688ZM16.4938 8.36616C15.8133 8.36616 15.2478 8.47146 14.7975 8.70146C14.3855 8.89319 14.0308 9.19973 13.7913 9.58301C13.5805 9.93771 13.4653 10.3305 13.4653 10.7427C13.4571 11.0817 13.5328 11.4175 13.6858 11.7202C13.8651 12.0425 14.1139 12.3207 14.4142 12.5347C14.8358 12.823 15.2933 13.055 15.775 13.2247C16.2445 13.4068 16.5608 13.5505 16.7142 13.675C16.8675 13.7997 16.9442 13.9243 16.9442 14.0585C16.9442 14.231 16.8388 14.394 16.6855 14.461C16.513 14.5472 16.2542 14.5952 15.89 14.5952C15.5067 14.5952 15.1233 14.5472 14.7591 14.4515C14.3409 14.358 13.9399 14.1995 13.5708 13.9819C13.542 13.9627 13.5133 13.9532 13.4845 13.9724C13.4558 13.9915 13.4463 14.0297 13.4463 14.0585V15.726C13.4367 15.8027 13.4845 15.8697 13.5517 15.908C13.8625 16.0532 14.1912 16.1564 14.5292 16.2147C14.9605 16.301 15.3916 16.3393 15.8323 16.3393C16.5223 16.3393 17.0975 16.234 17.567 16.0327C17.9983 15.8602 18.372 15.5632 18.6403 15.1797C18.8915 14.8027 19.0218 14.3582 19.0141 13.9052C19.0234 13.563 18.9477 13.2239 18.7938 12.9182C18.6116 12.5922 18.3528 12.324 18.0366 12.1227C17.5739 11.8322 17.0785 11.5973 16.5608 11.423C16.3295 11.3274 16.1025 11.2218 15.8803 11.1068C15.7558 11.0397 15.6408 10.9535 15.5545 10.848C15.497 10.7713 15.4588 10.6852 15.4588 10.599C15.4588 10.5127 15.4875 10.4169 15.5353 10.3402C15.6025 10.2444 15.7078 10.1772 15.8323 10.1485C16.0145 10.1007 16.2158 10.0718 16.4073 10.0813C16.7716 10.0813 17.1261 10.1293 17.4808 10.206C17.8067 10.273 18.1133 10.3785 18.4008 10.5319C18.4391 10.551 18.487 10.551 18.5733 10.5319C18.5883 10.5209 18.6005 10.5064 18.6088 10.4897C18.6172 10.4731 18.6214 10.4546 18.6213 10.436V8.87396C18.6213 8.83551 18.6116 8.79723 18.602 8.75896C18.5828 8.72069 18.5445 8.68223 18.5063 8.67271C18.242 8.56461 17.965 8.49052 17.682 8.45223C17.2885 8.39493 16.8914 8.36628 16.4938 8.36616Z" fill="#31A8FF"/>
</g>
<defs>
<clipPath id="clip0_1469_3818">
<rect width="23" height="23" fill="white"/>
</clipPath>
</defs>
</svg>
