<svg width="24" height="24" viewBox="0 0 24 24" fill="none" xmlns="http://www.w3.org/2000/svg">
<path d="M6.357 9C3.72 9.68 2 10.845 2 12.175C2 14.282 6.405 16 11.85 16C12.59 16 13.11 15.961 13.8 15.903" stroke="#F8F8F8" stroke-width="2" stroke-linecap="round" stroke-linejoin="round"/>
<path d="M9.83614 15.9002C9.42314 15.3042 9.03014 14.7672 8.65614 14.1002C5.90514 9.20022 5.16814 4.33022 7.02614 3.22722C8.17614 2.53022 10.0731 3.48022 12.0001 5.48122" stroke="#F8F8F8" stroke-width="2" stroke-linecap="round" stroke-linejoin="round"/>
<path d="M6.42873 15.387C5.72673 18.075 5.86873 20.103 6.98873 20.782C8.77173 21.862 12.3757 18.824 15.0317 13.978C15.3917 13.308 15.7147 12.649 15.9997 12" stroke="#F8F8F8" stroke-width="2" stroke-linecap="round" stroke-linejoin="round"/>
<path d="M12 18.5206C13.928 20.5206 15.817 21.4706 16.978 20.7736C18.828 19.6716 18.099 14.8016 15.345 9.90059C14.961 9.22359 14.568 8.69659 14.165 8.10059" stroke="#F8F8F8" stroke-width="2" stroke-linecap="round" stroke-linejoin="round"/>
<path d="M17.6592 15C20.2712 14.313 21.9992 13.15 21.9992 11.824C21.9992 9.714 17.5912 8 12.1542 8C11.4072 8 10.8882 8.029 10.1992 8.087" stroke="#F8F8F8" stroke-width="2" stroke-linecap="round" stroke-linejoin="round"/>
<path d="M8 12.0007C8.285 11.3407 8.607 10.6927 8.968 10.0227C11.615 5.17874 15.221 2.13274 17.014 3.22174C18.124 3.90074 18.276 5.92774 17.574 8.61474M12.26 12.0157H12.25C12.24 12.1457 12.13 12.2557 11.99 12.2557C11.923 12.2524 11.8599 12.2237 11.8134 12.1753C11.7669 12.127 11.7407 12.0628 11.74 11.9957C11.74 11.8557 11.85 11.7457 11.98 11.7457H11.97C12.1 11.7357 12.22 11.8557 12.22 11.9857" stroke="#F8F8F8" stroke-width="2" stroke-linecap="round" stroke-linejoin="round"/>
</svg>
