<svg width="23" height="23" viewBox="0 0 23 23" fill="none" xmlns="http://www.w3.org/2000/svg">
<g clip-path="url(#clip0_1469_2340)">
<path d="M19.7911 13.2389C18.991 13.2445 18.2955 13.5014 17.7132 13.8813C17.4995 13.3171 17.2858 12.8144 17.2482 12.4457C17.2062 12.0156 17.156 11.7531 17.2062 11.2391C17.2565 10.7252 17.4828 9.99343 17.4786 9.93761C17.4744 9.88179 17.4282 9.6192 16.9674 9.61369C16.5066 9.60806 16.1086 9.73097 16.0625 9.89293C16.0164 10.0549 15.9285 10.4236 15.8698 10.8033C15.7902 11.3621 14.9482 13.3561 14.4664 14.4007C14.3114 13.993 14.1773 13.6355 14.148 13.3506C14.1061 12.9205 14.0558 12.658 14.1061 12.1441C14.1564 11.6301 14.3826 10.8985 14.3784 10.8425C14.3742 10.7867 14.3281 10.5241 13.8673 10.5186C13.4064 10.513 13.0084 10.6359 12.9624 10.7978C12.9163 10.9599 12.866 11.3397 12.7697 11.7084C12.6733 12.0771 11.5547 15.4063 11.2615 16.2664C11.1429 16.6146 11.0186 16.9591 10.8886 17.2999C10.8886 17.2999 10.8844 17.3167 10.8718 17.3446C10.831 17.4514 10.7891 17.5576 10.7462 17.663V17.6685C10.6833 17.8194 10.6163 17.959 10.5828 17.959C10.5576 17.959 10.5115 17.5568 10.5911 17.0094C10.7587 15.8532 11.1567 14.0545 11.1526 13.993C11.1526 13.9595 11.2279 13.6467 10.8928 13.4846C10.566 13.3227 10.4487 13.5908 10.4193 13.5908C10.3901 13.5908 10.369 13.6858 10.369 13.6858C10.369 13.6858 10.7336 11.6637 9.67365 11.6637C9.01177 11.6637 8.09841 12.63 7.64596 13.5014C7.13162 13.8746 6.61771 14.2489 6.10424 14.6242C5.85717 14.8086 5.60157 14.9929 5.36276 15.166C5.34596 15.1438 5.32925 15.1157 5.31245 15.0934C4.03047 13.2669 1.65931 11.9765 1.75985 9.52433C1.79758 8.63056 2.02794 6.28444 6.31376 3.43568C9.8412 1.11747 12.6482 1.75979 13.1342 3.18423C13.8295 5.21758 11.6302 8.99365 7.9853 9.54098C6.59443 9.74774 5.86544 9.0327 5.68117 8.76461C5.48845 8.48525 5.45907 8.46848 5.38783 8.52443C5.27058 8.60828 5.34596 8.8596 5.38783 9.00479C5.49681 9.38453 5.94504 10.0549 6.70332 10.3846C7.37365 10.6749 9.00332 10.837 10.9766 9.82033C13.1844 8.68075 14.9105 5.51358 14.4036 2.86032C13.8966 0.167879 10.545 -0.720256 7.37365 0.78229C5.48845 1.67618 3.44397 3.08373 1.9735 4.91594C0.226485 7.09435 -0.0500541 8.98802 0.0630592 9.78128C0.469512 12.5965 3.38117 14.4287 4.54581 15.7861C4.48715 15.8308 4.43261 15.8699 4.38661 15.9035C3.80424 16.2888 1.58384 17.8361 1.03086 19.4728C0.402489 21.3273 1.13148 22.6568 1.61322 22.8355C3.10885 23.3885 4.64635 22.3943 5.47165 20.7519C6.29696 19.1097 6.19642 16.9758 5.81522 15.9983C5.81099 15.9872 5.80686 15.9759 5.79842 15.9648C5.94926 15.8475 6.10424 15.7246 6.25509 15.6073C6.53234 15.3888 6.8131 15.1783 7.0972 14.976C6.9547 15.4956 6.84995 16.1156 6.79972 17.0094C6.73683 18.0596 7.05937 19.4225 7.48254 19.9587C7.67112 20.1935 7.89312 20.199 8.03561 20.199C8.52993 20.199 8.75203 19.6515 8.99919 19.0036C9.30079 18.2104 9.57311 17.2887 9.57311 17.2887C9.57311 17.2887 9.23377 19.7801 10.1555 19.7801C10.4906 19.7801 10.8299 19.1991 10.9808 18.9031V18.9086C10.9808 18.9086 10.9891 18.8918 11.0059 18.8527C11.0394 18.7801 11.0604 18.7353 11.0604 18.7353V18.7243C11.1944 18.4114 11.4961 17.702 11.9444 16.5234C12.5225 15.0041 13.0797 13.1049 13.0797 13.1049C13.0797 13.1049 13.13 13.5685 13.3017 14.3394C13.4023 14.7918 13.6117 15.2889 13.7793 15.7693C13.6453 16.0207 13.5615 16.1603 13.5615 16.1603L13.5657 16.1659C13.4567 16.3558 13.3394 16.5624 13.2095 16.7637C12.7529 17.4898 12.2083 18.3222 12.1328 18.5622C12.0448 18.8471 12.0658 19.0539 12.2335 19.2215C12.3549 19.3444 12.5727 19.361 12.7948 19.3444C13.2054 19.3052 13.4944 19.1711 13.6368 19.0874C13.8589 18.9813 14.1187 18.8192 14.3616 18.579C14.8099 18.1377 15.0821 17.5065 15.0571 16.6743C15.0445 16.2162 14.9314 15.7582 14.7931 15.328C14.8351 15.2499 14.8727 15.1717 14.9147 15.0934C15.6226 13.7137 16.1715 12.1999 16.1715 12.1999C16.1715 12.1999 16.2218 12.6635 16.3935 13.4344C16.4773 13.8254 16.6491 14.25 16.7999 14.6633C16.1338 15.3839 15.7232 16.2218 15.5766 16.7692C15.3127 17.7859 15.5179 18.2438 15.9075 18.35C16.0835 18.4003 16.3348 18.2885 16.5192 18.1824C16.7538 18.0819 17.0303 17.9088 17.2943 17.6517C17.7426 17.2105 18.174 16.596 18.1489 15.7638C18.1363 15.3839 18.0609 15.0096 17.9562 14.6465C18.5217 14.3338 19.2507 14.1606 20.1807 14.3058C22.175 14.6186 22.5687 16.2776 22.4933 16.976C22.4179 17.6741 21.999 18.054 21.8608 18.1712C21.7224 18.2886 21.6764 18.3277 21.689 18.4114C21.7057 18.5343 21.7727 18.5288 21.8901 18.5064C22.0535 18.4674 22.9375 17.9422 22.9751 16.6574C23.038 15.0152 21.8649 13.2222 19.7911 13.2389ZM4.40754 20.1543C3.74557 21.115 2.82396 21.4781 2.42595 21.171C1.99865 20.8413 2.16621 19.4225 2.97894 18.4059C3.47326 17.7859 4.11007 17.2104 4.53324 16.8586C4.62955 16.7803 4.77204 16.6687 4.94382 16.529C4.97311 16.5066 4.98991 16.4955 4.98991 16.4955L5.09045 16.4116C5.38783 17.864 5.10302 19.1432 4.40754 20.1543ZM9.22542 15.7861C8.99497 16.5347 8.51322 18.4506 8.21997 18.3445C7.96859 18.2551 7.81352 16.8027 8.16966 15.3672C8.3498 14.6465 8.731 13.7863 8.9531 13.4512C9.31337 12.9149 9.71138 12.7361 9.80769 12.9541C9.92925 13.2389 9.36782 15.3169 9.22542 15.7861ZM13.2012 18.3221C13.1048 18.3891 13.0127 18.4338 12.9707 18.4003C12.9414 18.3779 13.0127 18.2885 13.0127 18.2885C13.0127 18.2885 13.5112 17.5736 13.7081 17.2496C13.8213 17.0597 13.9552 16.8363 14.0977 16.5848V16.6574C14.0977 17.5122 13.4776 18.0875 13.2011 18.3221M16.2677 17.3892C16.1965 17.3222 16.2091 17.0988 16.4479 16.4005C16.54 16.1268 16.7578 15.6688 17.1308 15.2275C17.1726 15.4062 17.202 15.5794 17.1978 15.7414C17.1936 16.8195 16.6155 17.2217 16.2677 17.3892Z" fill="#CD6799"/>
</g>
<defs>
<clipPath id="clip0_1469_2340">
<rect width="23" height="23" fill="white"/>
</clipPath>
</defs>
</svg>
