<svg width="23" height="23" viewBox="0 0 23 23" fill="none" xmlns="http://www.w3.org/2000/svg">
<path d="M11.5 4C8.43327 4 6.51727 5.53273 5.75 8.59946C6.89964 7.06655 8.24173 6.49173 9.77464 6.875C10.6499 7.09314 11.2754 7.7278 11.9681 8.43109C13.0954 9.57516 14.4003 10.8996 17.25 10.8996C20.3165 10.8996 22.2327 9.36673 23 6.29928C21.8502 7.83309 20.5083 8.40791 18.9752 8.02464C18.1001 7.80632 17.4753 7.17184 16.7817 6.46855C15.6551 5.32448 14.3506 4 11.5 4ZM5.75 10.8996C2.68345 10.8996 0.767266 12.4326 0 15.5C1.14964 13.9662 2.49155 13.3914 4.02464 13.7746C4.8999 13.993 5.52539 14.6274 6.21809 15.3307C7.34545 16.4748 8.65034 17.7993 11.5 17.7993C14.5665 17.7993 16.4827 16.2665 17.25 13.1998C16.1002 14.7327 14.7583 15.3076 13.2252 14.9243C12.3501 14.7061 11.7253 14.0715 11.0317 13.3682C9.90509 12.2241 8.60056 10.8996 5.75 10.8996Z" fill="#38BDF8"/>
</svg>
