<svg width="23" height="23" viewBox="0 0 23 23" fill="none" xmlns="http://www.w3.org/2000/svg">
<g clip-path="url(#clip0_1469_3822)">
<path d="M4.07422 8.44531H21.9837V21.6829H4.07422V8.44531Z" fill="white"/>
<path d="M0.269531 11.4834V22.7139H22.7305V0.25293H0.269531V11.4834ZM18.3695 10.585C18.9074 10.7098 19.3964 10.9912 19.7746 11.3936C19.9828 11.6103 20.1639 11.8517 20.3137 12.1123C20.3137 12.1411 19.3434 12.7969 18.7522 13.1635C18.7306 13.1779 18.6444 13.0844 18.5491 12.9425C18.4412 12.7562 18.2879 12.6004 18.1034 12.4895C17.919 12.3786 17.7095 12.3162 17.4944 12.3082C16.8134 12.2614 16.3749 12.619 16.3785 13.2066C16.3729 13.3529 16.4064 13.498 16.4755 13.6271C16.6247 13.9379 16.9032 14.123 17.7765 14.5003C19.3847 15.1921 20.0729 15.6486 20.5005 16.2972C20.9785 17.016 21.0845 18.1768 20.7611 19.0357C20.4017 19.97 19.5212 20.6043 18.276 20.8146C17.7073 20.8797 17.1326 20.8737 16.5654 20.7966C15.696 20.6533 14.8952 20.2359 14.2798 19.6053C14.0731 19.3771 13.6706 18.7823 13.6958 18.7392C13.7614 18.6905 13.8304 18.6466 13.9024 18.608L14.7344 18.148L15.3795 17.7743L15.5142 17.9737C15.7417 18.2991 16.0311 18.5763 16.3659 18.7895C17.0847 19.1668 18.0658 19.1147 18.5509 18.6781C18.7138 18.5181 18.8154 18.306 18.8381 18.0788C18.8608 17.8516 18.803 17.6237 18.6749 17.4346C18.4952 17.1849 18.1359 16.9746 17.1314 16.5362C15.9724 16.0367 15.4729 15.7276 15.0165 15.2353C14.7316 14.9104 14.5212 14.5271 14.4002 14.1122C14.3099 13.6383 14.2965 13.1529 14.3606 12.6747C14.5996 11.5553 15.4387 10.7736 16.6642 10.5418C17.2317 10.4716 17.8066 10.4874 18.3695 10.5886V10.585ZM13.0974 11.5265V12.4465H10.1811V20.7535H8.11289V12.4447H5.18937V11.5463C5.18027 11.2365 5.18747 10.9264 5.21094 10.6173C5.22531 10.6011 7.00781 10.6011 9.16406 10.6011H13.0866L13.0974 11.5265Z" fill="#007ACC"/>
</g>
<defs>
<clipPath id="clip0_1469_3822">
<rect width="23" height="23" fill="white"/>
</clipPath>
</defs>
</svg>
